<?xml version="1.0" encoding="utf-8"?>
<!-- Generator: Adobe Illustrator 25.2.1, SVG Export Plug-In . SVG Version: 6.00 Build 0)  -->
<svg version="1.1" id="Layer_1" xmlns="http://www.w3.org/2000/svg" xmlns:xlink="http://www.w3.org/1999/xlink" x="0px" y="0px"
	 viewBox="0 0 202.5 82.6" style="enable-background:new 0 0 202.5 82.6;" xml:space="preserve">
<style type="text/css">
	.st0{fill:#207F29;}
	.st1{fill:#F8C310;}
	.st2{fill:#236FB0;}
</style>
<g>
	<g>
		<g>
			<path class="st0" d="M6.5,45.9c0,14.5,11.8,26.2,26.3,26.2C32.7,57.7,21,45.9,6.5,45.9z"/>
		</g>
	</g>
	<path class="st1" d="M40.4,31.3c0,0.5-0.1,1-0.2,1.4c-0.1,0.5-0.2,0.9-0.4,1.4c-0.2,0.4-0.4,0.9-0.6,1.2c-0.2,0.3-0.6,0.7-0.9,1.1
		c-0.3,0.3-0.7,0.6-1.1,0.9c-0.4,0.2-0.8,0.5-1.2,0.6c-0.4,0.2-0.9,0.3-1.4,0.4c-0.5,0.1-1,0.2-1.4,0.2c-0.5,0-1-0.1-1.4-0.2
		c-0.5-0.1-0.9-0.2-1.4-0.4c-0.4-0.2-0.9-0.4-1.2-0.6c-0.4-0.2-0.7-0.6-1.1-0.9c-0.3-0.3-0.6-0.7-0.9-1.1c-0.2-0.4-0.5-0.8-0.6-1.2
		c-0.2-0.4-0.3-0.9-0.4-1.4c-0.1-0.5-0.2-1-0.2-1.4c0-0.4,0.1-1,0.2-1.4c0.1-0.5,0.2-0.9,0.4-1.4c0.2-0.5,0.4-0.9,0.6-1.2
		c0.2-0.4,0.6-0.7,0.9-1c0.3-0.3,0.7-0.6,1.1-0.9c0.4-0.2,0.8-0.5,1.2-0.6c0.4-0.2,0.9-0.3,1.4-0.4s1-0.2,1.4-0.2
		c0.5,0,1,0.1,1.4,0.2s0.9,0.2,1.4,0.4c0.4,0.2,0.9,0.4,1.2,0.6c0.4,0.2,0.7,0.6,1.1,0.9c0.3,0.3,0.6,0.7,0.9,1
		c0.2,0.4,0.5,0.8,0.6,1.2c0.2,0.4,0.3,0.9,0.4,1.4C40.4,30.4,40.4,30.9,40.4,31.3z"/>
	<g>
		<g>
			<path class="st0" d="M59.9,45.9c-14.5,0-26.3,11.8-26.3,26.2C48.2,72.1,59.9,60.4,59.9,45.9z"/>
		</g>
	</g>
	<g>
		<path class="st0" d="M44.9,14.7l-2.7-2.7c-0.2-0.2-0.6-0.2-0.7,0.2c-0.1,0.6-0.2,1-0.4,1.6c-0.1,0.2,0,0.6,0.2,0.8l1.1,1.1
			c6.2,6.1,6.2,16.1,0,22.3l-8.7,8.5c-0.2,0.2-0.6,0.2-0.9,0l-8.6-8.6c-6.2-6.1-6.2-16.1,0-22.3l0.7-0.7c0.2-0.2,0.2-0.6,0.2-0.8
			c-0.2-0.6-0.3-1.1-0.5-1.7c-0.1-0.2-0.4-0.4-0.6-0.2l-2.4,2.4c-9,9-9,23.7,0,32.7l11.1,11.1c0.3,0.3,0.8,0.3,1.1,0l11.1-11.1
			C53.9,38.3,53.9,23.7,44.9,14.7z"/>
	</g>
	<path class="st2" d="M37.5,13L33,5.6l-4.2,7.3c-1,1.5-1,3.5,0,5.2c1.5,2.4,4.6,3.1,7,1.7S38.9,15.3,37.5,13z"/>
</g>
<g>
	<g>
		<g>
			<path class="st0" d="M71.3,33.7h4.5l3.1,12h0.2l3-12h4.3l-5.1,16.1h-4.8L71.3,33.7z"/>
			<path class="st0" d="M90.7,49.3c-0.9-0.4-1.6-1.1-2.1-2s-0.7-2-0.7-3.3v-1.2c0-1.3,0.3-2.4,0.8-3.3c0.5-0.9,1.2-1.5,2.1-2
				s1.9-0.7,2.9-0.7c1.1,0,2.1,0.2,3,0.7s1.5,1.1,2,2s0.7,1.9,0.7,3.2v1.4h-7.9v0.6c0,0.7,0.2,1.3,0.7,1.7c0.4,0.4,1,0.7,1.7,0.7
				c0.4,0,0.7-0.1,1-0.2c0.3-0.1,0.5-0.3,0.7-0.5s0.3-0.4,0.3-0.7h3.4c0,0.4-0.1,0.9-0.4,1.4c-0.2,0.5-0.5,0.9-1,1.3
				c-0.4,0.4-1,0.8-1.7,1s-1.5,0.4-2.5,0.4C92.6,50,91.6,49.8,90.7,49.3z M95.8,42.1L95.8,42.1L95.8,42.1c0-0.6-0.1-1-0.3-1.3
				s-0.4-0.6-0.7-0.8s-0.7-0.3-1.1-0.3s-0.8,0.1-1.1,0.3s-0.6,0.5-0.8,0.8s-0.3,0.8-0.3,1.3l0,0l0,0H95.8z"/>
			<path class="st0" d="M109.4,51.1c0.4-0.4,0.6-1,0.6-1.8v-1.7h-0.2c-0.1,0.3-0.3,0.5-0.5,0.8c-0.2,0.2-0.5,0.4-0.8,0.6
				c-0.3,0.2-0.6,0.3-1,0.4c-0.4,0.1-0.8,0.2-1.2,0.2c-0.9,0-1.7-0.2-2.4-0.7s-1.2-1.1-1.6-1.9c-0.4-0.9-0.6-1.9-0.6-3.1v-1
				c0-1.2,0.2-2.3,0.6-3.1c0.4-0.9,0.9-1.5,1.6-1.9s1.5-0.7,2.4-0.7c0.6,0,1.2,0.1,1.6,0.3c0.5,0.2,0.9,0.4,1.2,0.8
				c0.3,0.3,0.6,0.7,0.7,1.1h0.2v-2h3.7v12.4c0,0.9-0.2,1.7-0.5,2.3s-0.8,1.1-1.4,1.5s-1.3,0.6-2,0.8s-1.5,0.2-2.2,0.2
				c-1.3,0-2.3-0.2-3.2-0.5c-0.8-0.4-1.4-0.8-1.8-1.4c-0.4-0.6-0.6-1.2-0.6-1.9h3.6c0.1,0.2,0.2,0.5,0.4,0.6s0.4,0.3,0.7,0.4
				c0.3,0.1,0.6,0.1,1,0.1C108.4,51.7,109,51.5,109.4,51.1z M106.6,40.3c-0.3,0.2-0.6,0.6-0.8,1c-0.2,0.4-0.3,1-0.3,1.6v0.9
				c0,0.6,0.1,1.2,0.3,1.6c0.2,0.5,0.5,0.8,0.8,1s0.7,0.4,1.2,0.4s0.8-0.1,1.2-0.4c0.3-0.2,0.6-0.6,0.7-1s0.3-0.9,0.3-1.5v-1.1
				c0-0.6-0.1-1.1-0.3-1.5s-0.4-0.8-0.8-1s-0.7-0.4-1.2-0.4C107.4,40,107,40.1,106.6,40.3z"/>
		</g>
	</g>
	<g>
		<g>
			<path class="st2" d="M119.2,49.9V33.8h1.9l7.5,12.4h0.1V33.8h2v16.1h-1.9l-7.6-12.4h-0.1v12.4H119.2z"/>
			<path class="st2" d="M135.3,49c-0.7-0.7-1.1-1.6-1.1-2.8c0-1.1,0.4-2,1.1-2.6c0.7-0.7,1.7-1,3.1-1h3.1v-1.2
				c0-0.8-0.2-1.4-0.7-1.8c-0.4-0.4-1-0.6-1.8-0.6c-0.5,0-0.9,0.1-1.2,0.2c-0.3,0.1-0.6,0.3-0.7,0.5s-0.3,0.5-0.4,0.8h-2
				c0-0.5,0.2-1,0.4-1.4s0.5-0.7,0.9-1s0.8-0.5,1.3-0.6s1.1-0.2,1.8-0.2c0.8,0,1.6,0.1,2.2,0.4c0.7,0.3,1.2,0.7,1.6,1.3
				s0.6,1.4,0.6,2.4v8.4h-2v-1.6h-0.1c-0.2,0.3-0.4,0.6-0.7,0.9c-0.3,0.3-0.7,0.5-1.1,0.7c-0.4,0.2-0.9,0.3-1.5,0.3
				C136.9,50.1,136,49.7,135.3,49z M140,47.9c0.4-0.2,0.8-0.5,1-0.9s0.4-0.8,0.4-1.4v-1.4h-2.9c-0.8,0-1.4,0.2-1.7,0.6
				c-0.3,0.4-0.5,0.8-0.5,1.4c0,0.7,0.2,1.2,0.7,1.6c0.5,0.3,1,0.5,1.6,0.5C139.1,48.3,139.6,48.2,140,47.9z"/>
			<path class="st2" d="M148,34.4h2v3.1h2.7v1.7H150v7.2c0,0.7,0.1,1.2,0.4,1.5c0.3,0.2,0.8,0.4,1.5,0.4c0.1,0,0.3,0,0.5,0
				s0.3,0,0.4,0V50c-0.1,0-0.3,0-0.6,0.1s-0.6,0-0.8,0c-0.9,0-1.6-0.1-2.1-0.4s-0.8-0.6-1-1.2c-0.2-0.5-0.3-1.2-0.3-2v-7.1h-1.8
				v-1.7h1.8L148,34.4L148,34.4z"/>
			<path class="st2" d="M165.5,49.9h-2v-2.1h-0.1c-0.1,0.3-0.3,0.7-0.6,1s-0.7,0.6-1.2,0.9s-1.1,0.4-1.8,0.4c-0.8,0-1.5-0.1-2.1-0.4
				s-1.1-0.7-1.4-1.3c-0.3-0.6-0.5-1.4-0.5-2.3v-8.6h2v8c0,0.7,0.1,1.2,0.4,1.6c0.2,0.4,0.5,0.7,0.9,0.8s0.8,0.2,1.3,0.2
				c0.6,0,1.1-0.1,1.6-0.4s0.8-0.6,1.1-1.1s0.4-0.9,0.4-1.5v-7.8h2L165.5,49.9L165.5,49.9z"/>
			<path class="st2" d="M169.7,37.5h2v1.9h0.1c0.1-0.3,0.3-0.6,0.5-0.9c0.2-0.3,0.6-0.6,1-0.8s1-0.4,1.7-0.4c0.1,0,0.3,0,0.4,0
				c0.1,0,0.2,0,0.4,0v1.9c-0.1,0-0.2,0-0.4-0.1c-0.2,0-0.4,0-0.5,0c-0.7,0-1.3,0.1-1.7,0.4c-0.5,0.3-0.8,0.6-1,1.1
				c-0.2,0.4-0.3,1-0.3,1.5v7.6h-2V37.5H169.7z"/>
			<path class="st2" d="M180.2,49.4c-0.8-0.4-1.3-1.1-1.7-1.9c-0.4-0.8-0.6-1.8-0.6-2.9v-1.9c0-1.1,0.2-2.1,0.6-2.9
				c0.4-0.8,1-1.4,1.7-1.9c0.7-0.4,1.6-0.7,2.5-0.7c1,0,1.8,0.2,2.5,0.7s1.3,1.1,1.7,1.9c0.4,0.8,0.6,1.8,0.6,2.9v1.5h-7.7v0.6
				c0,1,0.3,1.8,0.8,2.4c0.5,0.7,1.3,1,2.2,1c0.5,0,0.9-0.1,1.2-0.2c0.4-0.1,0.6-0.3,0.9-0.5c0.2-0.2,0.4-0.5,0.4-0.7h2.1
				c0,0.3-0.2,0.7-0.4,1.1c-0.2,0.4-0.5,0.7-0.9,1.1c-0.4,0.3-0.8,0.6-1.4,0.8c-0.6,0.2-1.2,0.3-1.9,0.3
				C181.9,50.1,181,49.9,180.2,49.4z M185.7,42.7C185.7,42.7,185.7,42.6,185.7,42.7c0-0.1,0-0.2,0-0.2c0-0.7-0.1-1.3-0.4-1.8
				c-0.2-0.5-0.6-0.9-1-1.2s-0.9-0.4-1.5-0.4s-1.1,0.1-1.5,0.4s-0.8,0.7-1,1.2s-0.4,1.1-0.4,1.8v0.1v0.1
				C179.9,42.7,185.7,42.7,185.7,42.7z"/>
		</g>
	</g>
</g>
</svg>
