 <svg xmlns="http://www.w3.org/2000/svg" data-name="Layer 1" viewBox="0 0 64 64" width="52" height="52"><path d="M32,50a17.94,17.94,0,0,0,13.17-5.77l.12-.09,0,0A18,18,0,1,0,32,50ZM16.09,33.67l9.17,10,1.48-1.36L17.21,31.93l1.62.35c5.11,1.11,9.67,5.42,10.83,10.23L31,48A16,16,0,0,1,16.09,33.67ZM33,48l1.31-5.44c1.16-4.81,5.72-9.12,10.83-10.23l1.62-.35L37.26,42.32l1.48,1.36,9.17-10A16,16,0,0,1,33,48ZM32,16A16,16,0,0,1,47.81,29.67l-3.06.65c-5.83,1.27-11,6.2-12.35,11.73L32,43.7l-.4-1.65c-1.33-5.53-6.52-10.46-12.35-11.73l-3.06-.65A16,16,0,0,1,32,16Z"/><path d="M4,26a1,1,0,0,0-1,1V37a1,1,0,0,0,1,1H7.73a24.66,24.66,0,0,0,2.87,6.92L8,47.56A1,1,0,0,0,8,49L15,56a1,1,0,0,0,1.41,0l2.64-2.64A24.66,24.66,0,0,0,26,56.27V60a1,1,0,0,0,1,1H37a1,1,0,0,0,1-1V56.27a24.66,24.66,0,0,0,6.92-2.87L47.56,56A1,1,0,0,0,49,56L56,49a1,1,0,0,0,0-1.41L53.4,44.92A24.66,24.66,0,0,0,56.27,38H60a1,1,0,0,0,1-1V27a1,1,0,0,0-1-1H56.27a24.66,24.66,0,0,0-2.87-6.92L56,16.44A1,1,0,0,0,56,15L49,8a1,1,0,0,0-1.41,0L44.92,10.6A24.66,24.66,0,0,0,38,7.73V4a1,1,0,0,0-1-1H27a1,1,0,0,0-1,1V7.73a24.66,24.66,0,0,0-6.92,2.87L16.44,8A1,1,0,0,0,15,8L8,15a1,1,0,0,0,0,1.41l2.64,2.64A24.66,24.66,0,0,0,7.73,26Zm5.5,1.21a22.76,22.76,0,0,1,3.21-7.72,1,1,0,0,0-.13-1.26l-2.5-2.49,5.66-5.66,2.49,2.5a1,1,0,0,0,1.26.13A22.76,22.76,0,0,1,27.21,9.5a1,1,0,0,0,.79-1V5h8V8.53a1,1,0,0,0,.79,1,22.76,22.76,0,0,1,7.72,3.21,1,1,0,0,0,1.26-.13l2.49-2.5,5.66,5.66-2.5,2.49a1,1,0,0,0-.13,1.26,22.76,22.76,0,0,1,3.21,7.72,1,1,0,0,0,1,.79H59v8H55.47a1,1,0,0,0-1,.79,22.76,22.76,0,0,1-3.21,7.72,1,1,0,0,0,.13,1.26l2.5,2.49-5.66,5.66-2.49-2.5a1,1,0,0,0-1.26-.13,22.76,22.76,0,0,1-7.72,3.21,1,1,0,0,0-.79,1V59H28V55.47a1,1,0,0,0-.79-1,22.76,22.76,0,0,1-7.72-3.21,1,1,0,0,0-1.26.13l-2.49,2.5-5.66-5.66,2.5-2.49a1,1,0,0,0,.13-1.26A22.76,22.76,0,0,1,9.5,36.79a1,1,0,0,0-1-.79H5V28H8.53A1,1,0,0,0,9.5,27.21Z"/><path d="M22.59,30.91l9,4a1,1,0,0,0,.82,0l9-4A1,1,0,0,0,42,30V22a1,1,0,0,0-.59-.91l-9-4a1,1,0,0,0-.82,0l-9,4A1,1,0,0,0,22,22v8A1,1,0,0,0,22.59,30.91ZM24,23.54l7,3.11v5.81l-7-3.11Zm9,8.92V26.65l7-3.11v5.81ZM32,19.09,38.54,22,32,24.91,25.46,22Z"/></svg>