<svg enable-background="new 0 0 512.748 512.748" height="52" viewBox="0 0 512.748 512.748" width="52" xmlns="http://www.w3.org/2000/svg"><g><path d="m512.748 242.627c0-66.288-25.813-128.608-72.684-175.479-2.93-2.928-7.678-2.928-10.607 0l-261.773 261.772c-19.465-10.278-37.254-7.297-57.66-3.724-9.261-33.415-32.482-46.356-33.706-47.015-3.647-1.965-8.195-.599-10.159 3.048s-.6 8.195 3.048 10.159c.217.116 15.958 8.904 24.389 31.793-24.245-6.016-50.08 2.298-67.37 20.014-23.751-86.614 4.809-216.558 115.392-216.404 49.194 0 92.625 32.375 108.846 78.346 1.376 3.906 5.662 5.958 9.566 4.58 3.907-1.377 5.957-5.66 4.58-9.566-9.497-26.966-26.814-50.253-50.612-66.266 2.131-11.127 6.682-21.749 13.303-30.961l9.888-13.759c9.496-13.216-5.177-31.574-20.287-24.686l-23.551 10.75c-.516-20.133 4.601-35.603 16.807-51.622 3.711-5.165 3.492-11.937-.546-16.85-4.038-4.915-10.64-6.439-16.426-3.802-20.973 9.573-41.202 18.072-52.447 39.91-11.16-21.673-31.582-30.387-52.447-39.91-5.785-2.642-12.388-1.112-16.425 3.801-4.038 4.914-4.258 11.685-.547 16.851 12.145 16.034 17.37 31.451 16.808 51.622l-23.553-10.75c-14.803-6.755-29.976 11.199-20.286 24.686l9.888 13.759c6.711 9.338 11.291 20.117 13.385 31.408-68.751 46.765-76.181 150.846-52.604 223.5-18.891 31.227-19.751 78.473-3.359 110.802 1.874 3.694 6.387 5.171 10.081 3.298s5.171-6.387 3.298-10.081c-18.119-35.742-12.697-96.384 24.737-118.171 16.385-9.536 30.748-7.351 48.046-3.89.656 4.47 1.041 9.28 1.041 14.489 0 4.143 3.357 7.5 7.5 7.5s7.5-3.357 7.5-7.5c0-5.088-.309-9.873-.864-14.375 17.673-3.25 32.555-6.449 49.429 3.187 47.472 27.108 47.557 119.345-.173 145.972-13.124 7.321-29.915 9.296-44.148 4.021-8.105-2.603-16.673-2.603-24.778 0-15.865 5.101-32.447 2.73-46.686-6.673-3.456-2.284-8.109-1.332-10.391 2.124-2.283 3.457-1.332 8.109 2.125 10.392 17.847 11.788 39.55 14.864 59.542 8.438 5.101-1.641 10.495-1.641 15.598 0 18.538 6.277 38.947 4.338 56.046-5.202 5.858-3.268 11.243-7.347 16.05-12.088 17.423 13.577 38.845 21 61.112 21 25.209 0 48.254-9.426 65.809-24.933 48.443-9.479 92.524-32.967 127.591-68.033 46.871-46.873 72.684-109.192 72.684-175.482zm-446.39-148.457-9.888-13.759c-.547-1.725.079-2.487 1.877-2.285 11.218 5.12 22.859 9.745 33.729 15.586 2.325 1.251 5.135 1.187 7.399-.168 2.266-1.354 3.652-3.799 3.652-6.438 0-25.734-.7-46.943-17.056-68.675 24.363 11.121 47.167 24.493 47.167 55.311 0 4.143 3.357 7.5 7.5 7.5s7.5-3.357 7.5-7.5c0-30.658 22.807-44.19 47.166-55.31-16.354 21.732-17.054 42.94-17.054 68.674 0 2.64 1.388 5.084 3.653 6.438 2.266 1.353 5.075 1.417 7.4.166 10.868-5.845 22.505-10.464 33.725-15.585 1.798-.202 2.424.56 1.878 2.285l-9.886 13.76c-6.855 9.54-11.844 20.35-14.702 31.719-18.142-9.25-38.165-14.098-58.799-14.098-20.97-.168-41.837 4.842-60.47 14.456-2.843-11.501-7.861-22.434-14.791-32.077zm128.812 384.388c24.648-35.704 23.508-96.516-4.261-130.505 15.418-13.592 34.958-21.022 55.756-21.022 46.604 0 84.521 37.916 84.521 84.521 0 46.604-37.916 84.521-84.521 84.521-18.738 0-36.773-6.186-51.495-17.515zm134.355-11.946c6.079-9.118 10.698-19.289 13.512-30.18 26.007-10.506 49.331-25.956 69.364-45.989 29.294-29.295 49.057-66.163 57.15-106.618.813-4.062-1.821-8.014-5.883-8.826-4.064-.815-8.013 1.821-8.826 5.883-7.511 37.543-25.854 71.761-53.049 98.955-16.387 16.387-35.144 29.464-55.876 39.014 4.137-56.807-42.264-106.82-99.252-106.82-24.304 0-47.16 8.599-65.249 24.372l225.581-225.582c33.896 36.547 52.176 83.83 51.619 133.97-.046 4.142 3.275 7.537 7.417 7.583 4.136.04 7.537-3.275 7.583-7.417.6-54.209-19.246-105.309-56.016-144.739l17.078-17.078c40.731 43.37 63.07 99.71 63.07 159.487 0 62.282-24.253 120.835-68.291 164.872-28.069 28.069-62.281 48.246-99.932 59.113z"/><path d="m359.018 326.454c-2.93-2.928-7.678-2.928-10.607 0-2.929 2.93-2.929 7.678 0 10.607l11.326 11.326c1.465 1.464 3.385 2.196 5.304 2.196s3.839-.732 5.304-2.196c2.929-2.93 2.929-7.678 0-10.607z"/><path d="m399.542 289.907-14.599-6.505c-3.784-1.688-8.217.016-9.903 3.798-1.686 3.784.015 8.218 3.798 9.903l14.599 6.505c.992.442 2.028.651 3.049.651 2.871 0 5.61-1.658 6.854-4.449 1.685-3.784-.015-8.217-3.798-9.903z"/><path d="m409.138 234.397-15.876-.796c-.129-.007-.256-.01-.382-.01-3.97 0-7.284 3.115-7.484 7.124-.208 4.138 2.978 7.659 7.114 7.866l15.876.796c.129.007.256.01.382.01 3.97 0 7.284-3.115 7.484-7.124.208-4.137-2.978-7.659-7.114-7.866z"/><path d="m385.197 198.497c.79 0 1.595-.126 2.385-.391l14.983-5.023c3.928-1.317 6.044-5.568 4.728-9.495-1.316-3.928-5.571-6.043-9.495-4.728l-14.983 5.023c-3.928 1.317-6.044 5.568-4.728 9.495 1.051 3.137 3.974 5.119 7.11 5.119z"/><path d="m140.739 218.411c1.919 0 3.839-.732 5.303-2.196l16.525-16.524c2.93-2.929 2.93-7.678.001-10.606s-7.678-2.93-10.606-.001l-11.223 11.222-11.223-11.222c-2.928-2.928-7.677-2.929-10.606.001-2.929 2.929-2.929 7.678.001 10.606l16.525 16.524c1.464 1.463 3.384 2.196 5.303 2.196z"/><path d="m208.382 218.411c1.919 0 3.839-.732 5.303-2.196l16.525-16.524c2.93-2.929 2.93-7.678.001-10.606-2.93-2.929-7.679-2.93-10.606-.001l-11.223 11.222-11.223-11.222c-2.928-2.928-7.677-2.929-10.606.001-2.929 2.929-2.929 7.678.001 10.606l16.525 16.524c1.464 1.463 3.384 2.196 5.303 2.196z"/><path d="m117.811 236.446-11.222 11.223-11.221-11.222c-2.93-2.929-7.679-2.93-10.606-.001-2.93 2.929-2.93 7.678-.001 10.606l16.524 16.525c1.407 1.407 3.314 2.197 5.304 2.197s3.896-.79 5.304-2.196l16.525-16.525c2.929-2.93 2.929-7.678 0-10.607-2.929-2.928-7.677-2.928-10.607 0z"/><path d="m168.929 263.578c1.407 1.407 3.314 2.197 5.304 2.197s3.896-.79 5.304-2.196l16.525-16.525c2.929-2.93 2.929-7.678 0-10.607-2.93-2.928-7.678-2.928-10.607 0l-11.222 11.223-11.221-11.222c-2.929-2.929-7.678-2.93-10.606-.001-2.93 2.929-2.93 7.678-.001 10.606z"/><circle cx="263.447" cy="358.791" r="7.5"/></g></svg>