<svg id="Capa_1" enable-background="new 0 0 512 512" height="512" viewBox="0 0 512 512" width="512" xmlns="http://www.w3.org/2000/svg"><g><path d="m336.999 0c-8.284 0-15 6.715-15 14.999 0 8.284 6.716 15 15 15 79.954.001 145.001 65.048 145.001 145.002 0 8.284 6.716 15 15 15 8.284 0 14.999-6.716 14.999-15 .001-96.651-78.349-175.001-175-175.001z"/><path d="m337 90c46.869 0 85 38.132 85.001 85 0 8.284 6.716 15 15 15 8.284 0 14.999-6.716 14.999-15 0-63.513-51.487-115-115-115-8.285 0-15 6.716-15 15 0 8.284 6.716 15 15 15z"/><path d="m322 135.001c0 8.284 6.716 15 15 15 6.977 0 13.518 2.839 18.303 7.97 4.416 4.735 6.697 11.078 6.697 17.553 0 7.996 6.481 14.477 14.477 14.477h.523c8.284 0 14.999-6.716 14.999-15 0-30.375-24.624-55-55-55-8.284 0-14.999 6.715-14.999 15z"/><path d="m433.193 305.081c-17.546-17.546-46.094-17.545-63.64 0l-33.682 33.682c-4.839 4.839-12.244 5.855-18.007 2.47-20.149-11.836-50.847-32.623-82.661-64.437-31.814-31.813-52.601-62.511-64.437-82.661-3.385-5.763-2.369-13.168 2.47-18.007l33.682-33.682c17.546-17.546 17.546-46.094 0-63.64l-63.64-63.64c-17.546-17.546-46.094-17.545-63.64 0l-52.894 52.9c-.003.003-.003.003-.006.006-14.184 14.184-23.128 32.199-25.865 52.093-2.722 19.791.953 39.554 10.627 57.152 37.886 68.916 82.007 127.49 138.85 184.334 56.844 56.843 115.418 100.964 184.334 138.851 17.597 9.674 37.36 13.349 57.151 10.626 19.898-2.737 37.913-11.683 52.099-25.871l52.899-52.895c17.546-17.546 17.546-46.094 0-63.64zm-332.341-268.701c5.849-5.849 15.365-5.849 21.214 0l63.64 63.64c5.849 5.849 5.848 15.365 0 21.214l-10.607 10.607-84.854-84.854zm321.867 427.665c-19.229 19.232-49.487 23.412-73.582 10.167-66.365-36.484-122.789-78.992-177.573-133.775-54.784-54.784-97.292-111.209-133.776-177.573-13.245-24.094-9.066-54.35 10.163-73.579.001-.001.002-.002.003-.004l21.082-21.078 84.849 84.849-1.863 1.863c-14.498 14.498-17.427 36.874-7.124 54.415 12.722 21.658 35.036 54.624 69.091 88.679s67.021 56.369 88.679 69.091c17.541 10.303 39.917 7.374 54.415-7.124l1.863-1.863 84.849 84.849zm52.901-52.897-10.607 10.607-84.853-84.854 10.607-10.607c5.849-5.849 15.365-5.849 21.214 0l63.64 63.64c5.848 5.849 5.848 15.365-.001 21.214z"/></g></svg>