<svg enable-background="new 0 0 512 512" height="36" viewBox="0 0 512 512" width="36" xmlns="http://www.w3.org/2000/svg"><g><path d="m452.006 110.164h-23.006v-3.944c0-15.158-12.332-27.49-27.49-27.49h-266.09c-4.143 0-7.5 3.358-7.5 7.5s3.357 7.5 7.5 7.5h266.09c6.887 0 12.49 5.603 12.49 12.49v11.366c0 .026-.004.051-.004.077s.004.051.004.077v36.977c0 .026-.004.051-.004.077s.004.051.004.077v.081c-24.935-1.403-38.392-9.802-52.56-18.652-16.636-10.393-33.838-21.139-68.002-21.139s-51.366 10.747-68.002 21.139c-15.526 9.699-30.19 18.861-60.055 18.861-29.862 0-44.526-9.161-60.052-18.861-15.369-9.602-31.233-19.499-60.5-20.951v-9.131c0-6.887 5.604-12.49 12.49-12.49h48.1c4.143 0 7.5-3.358 7.5-7.5s-3.357-7.5-7.5-7.5h-48.1c-15.158 0-27.49 12.332-27.49 27.49v126.382c0 41.964 19.095 80.931 51.083 106.633h-49.291c-17.435.001-31.621 14.186-31.621 31.621s14.186 31.621 31.621 31.621h8.85c5.276 17.945 21.913 30.795 41.112 30.795h295.659c19.199 0 35.835-12.849 41.112-30.795h8.85c17.436 0 31.621-14.185 31.621-31.621s-14.186-31.621-31.621-31.621h-49.302c6.748-5.421 12.933-11.421 18.474-17.927h1.239c63.071 0 114.384-51.312 114.384-114.383v-36.767c.001-33.079-26.912-59.992-59.993-59.992zm-23.006 122.436v-70.305h23.006c4.335 0 7.862 3.527 7.862 7.862v36.767c0 23.908-13.535 45.161-34.173 55.556 2.162-9.688 3.305-19.693 3.305-29.88zm-51.758 185.67h-295.659c-10.915 0-20.56-6.388-25.101-15.795h345.861c-4.541 9.407-14.186 15.795-25.101 15.795zm66.583-47.416c0 9.165-7.456 16.621-16.621 16.621h-395.583c-9.165 0-16.621-7.456-16.621-16.621s7.456-16.621 16.621-16.621h395.583c9.165.001 16.621 7.457 16.621 16.621zm-314.739-87.797v-22.816h22.816c30.975 0 56.174 25.199 56.174 56.174v22.816h-22.816c-30.975 0-56.174-25.2-56.174-56.174zm221.994 56.177h-41.646c3.324-2.108 6.531-4.417 9.588-6.937 3.195-2.635 3.65-7.362 1.016-10.558-2.635-3.196-7.362-3.65-10.559-1.015-14.474 11.934-32.812 18.507-51.639 18.507h-34.76v-34.76c0-44.818 36.457-81.28 81.27-81.28h34.761v34.77c0 14.97-4.091 29.58-11.831 42.25-2.159 3.535-1.044 8.151 2.491 10.31s8.149 1.044 10.31-2.491c9.179-15.026 14.03-32.34 14.03-50.07v-42.27c0-4.142-3.357-7.5-7.5-7.5h-42.261c-43.911 0-81.049 29.556-92.572 69.82-12.674-19.69-34.769-32.769-59.875-32.769h-30.316c-4.143 0-7.5 3.358-7.5 7.5v30.316c0 22.815 10.803 43.143 27.55 56.177h-33.905c-38.842-21.501-62.902-62.182-62.902-106.634v-102.229c24.931 1.404 38.387 9.802 52.553 18.652 16.635 10.393 33.836 21.139 67.999 21.139 34.164 0 51.366-10.747 68.002-21.139 15.526-9.699 30.19-18.861 60.055-18.861s44.528 9.161 60.055 18.861c15.371 9.602 31.236 19.5 60.507 20.951v62.626c-.001 44.451-24.069 85.132-62.921 106.634zm145.92-132.31c0 51.363-39.167 93.751-89.203 98.865 4.989-7.879 9.163-16.262 12.454-25.024 32.354-9.884 54.617-39.68 54.617-73.841v-36.767c0-12.606-10.256-22.862-22.862-22.862h-23.006v-22.132h23.006c24.81 0 44.994 20.184 44.994 44.993z"/></g></svg>