<svg height="36" viewBox="-55 0 511 511.99844" width="36" xmlns="http://www.w3.org/2000/svg"><path d="m401.289062 263.460938c0-11.488282-9.347656-20.839844-20.835937-20.839844-24.148437 0-47.402344 6.019531-68.039063 17.324218-.0625-.023437-.128906-.046874-.191406-.074218 1.25-4.800782 1.945313-9.734375 2.027344-14.714844 21.785156-8.515625 34.117188-32.625 27.816406-56.132812-3.058594-11.417969-13.191406-27.605469-25.8125-41.242188-10.695312-11.554688-26.136718-24.613281-39.03125-21.152344-12.882812 3.449219-19.738281 22.480469-23.222656 37.832032-4.109375 18.121093-4.792969 37.207031-1.734375 48.625 5.71875 21.347656 25.207031 35.878906 46.792969 35.183593-.199219 2.300781-.5625 4.585938-1.097656 6.832031-20.023438-5.433593-41.289063-5.996093-61.683594-1.609374v-145.382813c0-4.144531-3.355469-7.5-7.5-7.5h-58.128906v15h50.628906v74.515625c-10.828125-.132812-16.117188-2.15625-22.1875-4.488281-6.703125-2.578125-14.300782-5.5-28.699219-5.5-14.394531 0-21.992187 2.921875-28.695313 5.5-6.023437 2.316406-11.277343 4.324219-21.945312 4.484375l-19.96875-74.515625h35.867188v-15h-39.886719l-24.769531-92.441407c-1.578126-5.875-7.605469-9.363281-13.488282-7.785156l-33.15625 8.882813c-5.882812 1.574219-9.367187 7.605469-7.792968 13.492187l20.863281 77.851563h-29.417969c-4.144531 0-7.5 3.359375-7.5 7.5v396.394531c0 4.140625 3.355469 7.5 7.5 7.5h220.777344c2.609375 0 4.90625-1.335938 6.25-3.355469 35.390625 7.980469 73.875 1.167969 105.261718-21.550781 3.355469-2.429688 4.105469-7.117188 1.679688-10.472656-2.429688-3.355469-7.117188-4.105469-10.472656-1.679688-19.792969 14.324219-43.210938 21.898438-67.722656 21.898438-63.757813 0-115.628907-51.871094-115.628907-115.628906 0-63.765626 51.871094-115.640626 115.628907-115.640626 9.675781 0 19.164062 1.183594 28.378906 3.511719-1.464844 2.378907-1.640625 2.527344-7.867188 11.109375-1.152344 1.0625-2.292968 2.140625-3.414062 3.246094-1.898438 1.867188-2.660156 4.597656-2.007813 7.175781 3.066407 12.152344 12.15625 21.234375 24.316407 24.289063 2.542968.640625 5.222656-.097656 7.078124-1.921875 8.453126-8.292969 18.128907-14.910157 28.613282-19.695313 47.339844 40.417969 53.882812 110.417969 16.269531 158.800782-2.542969 3.269531-1.953125 7.980468 1.316406 10.523437 3.292969 2.558594 8 1.929687 10.523438-1.316406 40.632812-52.265625 35.792969-127.226563-12.105469-173.707031 8.25-2.167969 16.828125-3.289063 25.574219-3.289063 11.492187 0 20.839843-9.347656 20.839843-20.835937zm-134.535156-54.257813c-2.398437-8.953125-1.628906-25.988281 1.875-41.421875 4.257813-18.761719 10.246094-26.066406 12.476563-26.664062.160156-.042969.355469-.066407.582031-.066407 2.941406 0 11.429688 3.8125 23.558594 16.917969 10.75 11.617188 19.933594 25.980469 22.335937 34.9375 3.925781 14.664062-2.675781 29.644531-15.089843 36.539062-.582032-2.414062.945312 3.355469-6.742188-25.335937l11.117188-19.25c2.070312-3.589844.84375-8.175781-2.746094-10.246094-3.585938-2.070312-8.171875-.84375-10.242188 2.746094l-3.617187 6.261719-5.746094-21.449219c-1.070313-4-5.183594-6.378906-9.1875-5.300781-4 1.070312-6.375 5.183594-5.300781 9.183594l10.175781 37.976562-7.179687-4.144531c-3.585938-2.070313-8.175782-.84375-10.246094 2.746093-2.070313 3.585938-.839844 8.171876 2.746094 10.246094l20.167968 11.644532c2.316406 8.648437 1.898438 7.03125 2.304688 8.78125-14.160156.1875-27.320313-9.472657-31.242188-24.101563zm-130.460937 200.535156-.480469.128907-57.261719-213.695313c10.257813 2 15.476563 6.691406 29.535157 8.382813l34.363281 128.242187c-9.835938 24.570313-11.851563 51.480469-6.15625 76.941406zm-52.039063-294.128906 19.546875 72.957031c-9.21875-2.316406-14.949219-6.804687-29.453125-8.089844l-17.382812-64.867187zm-52.179687-92.890625 25.460937-6.820312 22.699219 84.710937h-27.289063zm9.363281 92.890625 17.371094 64.828125c-9.707032.808594-15.714844 3.113281-21.132813 5.199219-6.070312 2.332031-11.355469 4.351562-22.175781 4.488281v-74.515625zm-25.9375 381.390625v-19.476562h12.351562c4.140626 0 7.5-3.355469 7.5-7.5 0-4.144532-3.359374-7.5-7.5-7.5h-12.351562v-257.402344c13.648438-.152344 21.035156-2.976563 27.558594-5.484375 5.589844-2.148438 10.511718-4.035157 19.707031-4.421875l59.589844 222.386718c1.574219 5.875 7.613281 9.363282 13.488281 7.785157l4.566406-1.222657c4.894532 14.023438 12.121094 26.964844 21.207032 38.359376h-98.769532c-4.140625 0-7.5 3.355468-7.5 7.5 0 4.140624 3.359375 7.5 7.5 7.5h112.777344c8.324219 7.628906 17.644531 14.1875 27.730469 19.476562zm137.09375-184.296875-28.863281-107.714844c11.027343-.621093 17.527343-3.113281 23.347656-5.351562 6.277344-2.414063 11.703125-4.5 23.3125-4.5 11.613281 0 17.035156 2.085937 23.316406 4.5 6.523438 2.507812 13.914063 5.335937 27.570313 5.484375v52.554687c-28.730469 9.910157-52.949219 29.578125-68.683594 55.027344zm184.84375-35.125c-.125.046875-.253906.09375-.378906.152344-12.335938 5.011719-23.792969 12.179687-33.878906 21.320312-3.667969-1.742187-6.542969-4.566406-8.339844-8.195312.019531-.015625.03125-.03125.046875-.046875 23.441406-21.4375 53.636719-33.1875 85.566406-33.1875 3.21875 0 5.835937 2.621094 5.835937 5.839844s-2.617187 5.835937-5.835937 5.835937c-14.808594 0-29.363281 2.792969-43.015625 8.28125zm0 0"/><path d="m325.925781 381.207031c0 4.140625-3.355469 7.5-7.5 7.5-4.140625 0-7.5-3.359375-7.5-7.5s3.359375-7.5 7.5-7.5c4.144531 0 7.5 3.359375 7.5 7.5zm0 0"/><path d="m351.21875 418.265625c0 4.140625-3.359375 7.5-7.5 7.5-4.144531 0-7.5-3.359375-7.5-7.5 0-4.144531 3.355469-7.5 7.5-7.5 4.140625 0 7.5 3.355469 7.5 7.5zm0 0"/><path d="m317.871094 446.445312c0 4.140626-3.359375 7.5-7.5 7.5s-7.5-3.359374-7.5-7.5c0-4.144531 3.359375-7.5 7.5-7.5s7.5 3.355469 7.5 7.5zm0 0"/></svg>